<svg viewBox="0 0 131.25 45" xmlns="http://www.w3.org/2000/svg"><path d="M79.212 16.269c-.77 0-1.415.355-1.939 1.063-.52.709-.782 1.704-.782 2.984 0 1.282.249 2.264.747 2.949.498.686 1.151 1.028 1.962 1.028.81 0 1.47-.346 1.975-1.04.506-.693.759-1.683.759-2.973 0-1.289-.262-2.28-.783-2.973-.521-.692-1.168-1.038-1.939-1.038M79.2 29.003c-2.255 0-4.094-.74-5.515-2.222-1.42-1.482-2.13-3.645-2.13-6.488 0-2.845.718-5 2.155-6.466 1.436-1.465 3.291-2.198 5.563-2.198 2.271 0 4.106.72 5.501 2.163 1.399 1.442 2.096 3.626 2.096 6.548 0 2.924-.714 5.1-2.143 6.527-1.43 1.424-3.27 2.136-5.527 2.136m14.42-12.566v7.228c0 .337.025.55.073.64.048.088.193.133.433.133.884 0 1.553-.332 2.01-.992.46-.66.687-1.759.687-3.297 0-1.54-.238-2.543-.71-3.009-.474-.467-1.225-.703-2.252-.703zm-4.623 11.214V13.153c0-.403.1-.721.301-.957.2-.232.461-.35.783-.35h4.022c2.552 0 4.49.646 5.813 1.935 1.326 1.288 1.989 3.317 1.989 6.089 0 5.929-2.522 8.893-7.563 8.893h-4.117c-.818 0-1.228-.37-1.228-1.111m22.153-11.383c-.77 0-1.417.355-1.94 1.063-.52.709-.78 1.704-.78 2.984 0 1.282.248 2.264.745 2.949.497.686 1.152 1.028 1.963 1.028.81 0 1.47-.346 1.974-1.04.506-.693.76-1.683.76-2.973 0-1.289-.262-2.28-.783-2.973-.522-.692-1.168-1.038-1.939-1.038m-.012 12.734c-2.256 0-4.094-.74-5.514-2.222-1.421-1.482-2.131-3.645-2.131-6.488 0-2.845.718-5 2.154-6.466 1.438-1.465 3.291-2.198 5.564-2.198 2.272 0 4.105.72 5.502 2.163 1.397 1.442 2.095 3.626 2.095 6.548 0 2.924-.714 5.1-2.144 6.527-1.428 1.424-3.271 2.136-5.526 2.136m16.642-.626c0 .32-.794.483-2.384.483-1.588 0-2.384-.163-2.384-.483V16.245h-2.89c-.273 0-.465-.37-.577-1.113a8.086 8.086 0 0 1-.072-1.086c0-.37.023-.733.072-1.087.112-.741.304-1.114.578-1.114h10.475c.272 0 .464.373.578 1.114a8.302 8.302 0 0 1 0 2.173c-.114.743-.306 1.113-.578 1.113h-2.818zM67.297 19.79c-1.296-.02-2.78.251-2.78.251v2.54h1.492l-.017 1.131c0 .42-.414.63-1.24.63-.827 0-1.558-.351-2.191-1.052-.636-.702-.951-1.728-.951-3.08 0-1.355.308-2.353.926-2.998.617-.644 1.426-.967 2.42-.967.418 0 .85.068 1.3.206.45.137.751.265.904.385.153.123.297.182.434.182.136 0 .356-.16.661-.483.305-.322.579-.81.82-1.461.24-.654.36-1.156.36-1.512a7.48 7.48 0 0 0-.023-.724c-.337-.37-.96-.664-1.867-.883-.906-.217-1.922-.326-3.046-.326-2.473 0-4.407.782-5.803 2.344-1.397 1.563-2.095 3.593-2.095 6.09 0 2.933.714 5.156 2.142 6.67 1.43 1.515 3.308 2.27 5.636 2.27 1.252 0 2.363-.107 3.334-.325.972-.217 1.618-.44 1.94-.665l.096-7.562c0-.44-1.156-.639-2.452-.661m-5.075 19.105c-.133.274-.378.526-.736.753-.357.229-.812.342-1.363.342-.728 0-1.313-.23-1.758-.695-.443-.462-.664-1.127-.664-1.996v-2.165c0-.85.209-1.501.628-1.956.419-.451.98-.68 1.68-.68.683 0 1.214.18 1.59.538.374.358.57.86.587 1.499l-.009.028h-.559c-.02-.49-.162-.868-.428-1.135-.266-.265-.66-.4-1.182-.4-.527 0-.945.18-1.251.54-.305.358-.457.877-.457 1.56v2.178c0 .708.164 1.248.493 1.62.328.369.771.554 1.33.554.408 0 .736-.073.982-.221.246-.147.417-.325.513-.538v-1.896h-1.506v-.528h2.11zm2.766.555c.332 0 .627-.094.884-.286.258-.193.44-.436.546-.733v-1.17h-.958c-.407 0-.733.116-.978.347-.245.23-.366.518-.366.86 0 .288.076.526.23.708.153.184.367.274.642.274m1.52.436c-.03-.187-.053-.34-.068-.458a3.106 3.106 0 0 1-.022-.365 2.113 2.113 0 0 1-.635.665c-.26.176-.55.263-.87.263-.446 0-.789-.139-1.032-.416-.241-.28-.363-.655-.363-1.13 0-.501.175-.904.527-1.202.352-.299.83-.448 1.431-.448h.942v-.665c0-.382-.097-.684-.288-.901-.195-.215-.463-.324-.808-.324-.322 0-.587.103-.796.31-.207.207-.31.46-.31.76l-.56-.005-.01-.03c-.015-.407.139-.768.463-1.087.323-.32.738-.477 1.243-.477.498 0 .9.152 1.206.455.305.306.458.743.458 1.31v2.654c0 .194.009.381.026.56.017.182.045.357.089.531zm2.386-5.412.05.84c.143-.3.332-.532.568-.697.236-.162.514-.243.833-.243.326 0 .6.095.821.287.222.192.385.482.49.872.132-.36.32-.644.565-.85.244-.206.54-.31.883-.31.473 0 .84.193 1.1.577.261.385.391.976.391 1.774v3.16h-.602v-3.17c0-.664-.091-1.131-.27-1.4a.869.869 0 0 0-.767-.404.923.923 0 0 0-.817.448c-.195.301-.316.677-.36 1.131v3.396h-.599v-3.168c0-.648-.09-1.112-.275-1.389a.874.874 0 0 0-.77-.414c-.315 0-.57.096-.76.287-.192.192-.328.455-.411.789v3.895h-.599v-5.41zm8.691.43c-.375 0-.683.172-.924.514-.242.344-.367.768-.377 1.273h2.488v-.232c0-.447-.105-.818-.314-1.113a1.01 1.01 0 0 0-.873-.442m.085 5.086a1.78 1.78 0 0 1-1.426-.658c-.368-.437-.553-.997-.553-1.678v-.899c0-.682.185-1.252.555-1.705.371-.45.817-.676 1.34-.676.564 0 1.002.201 1.314.605.313.404.47.946.47 1.627v.594h-3.086v.45c0 .524.125.96.374 1.308.25.349.588.522 1.012.522.295 0 .551-.053.765-.155.214-.106.398-.253.55-.446l.245.425a1.764 1.764 0 0 1-.63.5 2.13 2.13 0 0 1-.93.186m6.565-5.086c-.376 0-.685.172-.926.514-.24.344-.365.768-.376 1.273h2.487v-.232c0-.447-.104-.818-.314-1.113-.21-.296-.5-.442-.871-.442m.084 5.086c-.582 0-1.056-.22-1.425-.658-.37-.437-.554-.997-.554-1.678v-.899c0-.682.185-1.252.555-1.705.372-.45.817-.676 1.34-.676.563 0 1.003.201 1.315.605.312.404.468.946.468 1.627v.594h-3.085v.45c0 .524.125.96.375 1.308.248.349.585.522 1.01.522.297 0 .552-.053.765-.155.215-.106.398-.253.553-.446l.243.425a1.762 1.762 0 0 1-.631.5 2.13 2.13 0 0 1-.93.186m3.281-5.516.05.895c.143-.318.333-.564.571-.736a1.38 1.38 0 0 1 .835-.26c.482 0 .85.18 1.107.539.259.358.387.916.387 1.672v3.3h-.603V36.59c0-.619-.09-1.05-.27-1.3-.178-.251-.44-.376-.781-.376-.306 0-.563.1-.769.303-.206.2-.36.468-.463.806v3.862h-.598v-5.41zm4.705 3.18c0 .549.104.986.314 1.31.208.328.524.49.946.49.29 0 .533-.077.733-.235.2-.159.357-.38.473-.659v-2.68a1.843 1.843 0 0 0-.46-.7 1.053 1.053 0 0 0-.736-.266c-.42 0-.74.185-.95.554-.214.37-.32.854-.32 1.446zm-.604-.74c0-.766.154-1.382.464-1.846.308-.462.736-.694 1.28-.694.303 0 .569.074.796.223.227.146.415.36.566.63l.059-.752h.507v5.415c0 .694-.16 1.231-.482 1.611-.322.379-.78.57-1.37.57-.213 0-.442-.033-.686-.098a2.767 2.767 0 0 1-.65-.257l.165-.527a2.155 2.155 0 0 0 1.16.332c.429 0 .747-.138.952-.413.206-.28.31-.683.31-1.218v-.654c-.154.244-.342.43-.564.56-.222.13-.48.194-.773.194-.541 0-.966-.213-1.273-.638-.307-.425-.461-.992-.461-1.698zm5.686 2.971h-.603v-5.41h.603zm0-6.95h-.603v-.853h.603zm1.948 1.539.05.895c.144-.318.333-.564.57-.736.238-.172.517-.26.836-.26.482 0 .852.18 1.109.539.258.358.385.916.385 1.672v3.3h-.602V36.59c0-.619-.09-1.05-.27-1.3-.18-.251-.44-.376-.782-.376-.306 0-.562.1-.767.303-.207.2-.361.468-.463.806v3.862h-.6v-5.41zm5.952.43c-.376 0-.684.172-.925.514-.24.344-.366.768-.377 1.273h2.488v-.232c0-.447-.104-.818-.314-1.113a1.007 1.007 0 0 0-.872-.442m.085 5.086c-.583 0-1.057-.22-1.425-.658-.369-.437-.553-.997-.553-1.678v-.899c0-.682.184-1.252.554-1.705.371-.45.818-.676 1.339-.676.564 0 1.004.201 1.316.605.312.404.469.946.469 1.627v.594h-3.087v.45c0 .524.126.96.375 1.308.249.349.586.522 1.012.522.295 0 .55-.053.764-.155.216-.106.398-.253.552-.446l.245.425a1.777 1.777 0 0 1-.632.5 2.128 2.128 0 0 1-.929.186M18.939 0c-2.172.485-4.321 1.16-6.335 2.177.046 1.785.16 3.496.394 5.233-.783.503-1.605.935-2.336 1.524-.742.573-1.5 1.121-2.173 1.792a41.593 41.593 0 0 0-4.229-2.47C2.682 9.963 1.206 11.803 0 13.862c.947 1.493 1.964 2.993 2.905 4.163v12.638c.023 0 .046 0 .07.003l7.72.747c.404.04.72.366.749.773l.238 3.42 6.734.482.464-3.157c.06-.41.41-.713.823-.713h8.145c.412 0 .762.304.822.713l.464 3.157 6.735-.483.238-3.42a.833.833 0 0 1 .749-.772l7.717-.747a.875.875 0 0 1 .069-.003v-1.009h.003V18.023a45.625 45.625 0 0 0 2.906-4.163c-1.206-2.059-2.683-3.899-4.261-5.604a41.628 41.628 0 0 0-4.23 2.47c-.671-.671-1.428-1.22-2.172-1.793-.73-.589-1.554-1.02-2.335-1.523a48.35 48.35 0 0 0 .394-5.233C32.932 1.16 30.784.485 28.611 0a45.322 45.322 0 0 0-2.353 4.597 16.032 16.032 0 0 0-2.467-.198v-.001l-.016.001-.015-.001V4.4c-.826.01-1.649.06-2.469.198A44.962 44.962 0 0 0 18.94.001zm-6.108 18.487a4.66 4.66 0 0 1 4.653 4.667 4.66 4.66 0 0 1-4.653 4.669c-2.568 0-4.652-2.09-4.652-4.67a4.66 4.66 0 0 1 4.652-4.666zm21.89 0a4.659 4.659 0 0 1 4.65 4.667c0 2.58-2.083 4.669-4.65 4.669a4.66 4.66 0 0 1-4.654-4.67 4.66 4.66 0 0 1 4.653-4.666zm-10.946 2.73c.827 0 1.5.613 1.5 1.367v4.298c0 .754-.673 1.366-1.5 1.366s-1.497-.612-1.497-1.366v-4.298c0-.754.67-1.366 1.497-1.366z"/><path d="m37.715 33.005-.24 3.438a.833.833 0 0 1-.77.774l-8.223.59a.832.832 0 0 1-.882-.71l-.47-3.21h-6.71l-.472 3.209a.831.831 0 0 1-.882.71l-8.223-.589a.833.833 0 0 1-.77-.774l-.24-3.438-6.941-.672c.003.75.013 1.57.013 1.733 0 7.358 9.3 10.894 20.854 10.935h.029c11.555-.04 20.852-3.577 20.852-10.935 0-.167.01-.983.013-1.733zm-21.351-9.573a3.093 3.093 0 0 1-3.089 3.098c-1.705 0-3.088-1.387-3.088-3.098s1.383-3.1 3.088-3.1a3.094 3.094 0 0 1 3.089 3.1m14.822 0a3.092 3.092 0 0 0 3.086 3.098c1.707 0 3.088-1.387 3.088-3.098s-1.381-3.1-3.088-3.1a3.093 3.093 0 0 0-3.086 3.1"/></svg>