<svg xml:space="preserve" xmlns="http://www.w3.org/2000/svg" xmlns:xlink="http://www.w3.org/1999/xlink" viewBox="0 0 106 48"><g transform="translate(24.5 24) scale(.45714)"><path d="M-8.5-14.5h13c8 0 8 8 0 8h-13zm-31 37h40v-11h-9v-8h10c11 0 5 19 14 19h25v-19h-6v2c0 8-9 7-10 2s-5-9-6-9c15-8 6-24-6-24h-47v11h10v26h-15z" stroke="#000" stroke-linejoin="round"/><g mask="url(#a)"><circle r="43" fill="none" stroke="#000" stroke-width="9"/><path id="b" stroke="#000" stroke-linejoin="round" stroke-width="3" d="M46-3v6l5-3z"/><use transform="rotate(11.25)" xlink:href="#b"/><use transform="rotate(22.5)" xlink:href="#b"/><use transform="rotate(33.75)" xlink:href="#b"/><use transform="rotate(45)" xlink:href="#b"/><use transform="rotate(56.25)" xlink:href="#b"/><use transform="rotate(67.5)" xlink:href="#b"/><use transform="rotate(78.75)" xlink:href="#b"/><use transform="rotate(90)" xlink:href="#b"/><use transform="rotate(101.25)" xlink:href="#b"/><use transform="rotate(112.5)" xlink:href="#b"/><use transform="rotate(123.75)" xlink:href="#b"/><use transform="rotate(135)" xlink:href="#b"/><use transform="rotate(146.25)" xlink:href="#b"/><use transform="rotate(157.5)" xlink:href="#b"/><use transform="rotate(168.75)" xlink:href="#b"/><use transform="scale(-1)" xlink:href="#b"/><use transform="rotate(191.25)" xlink:href="#b"/><use transform="rotate(202.5)" xlink:href="#b"/><use transform="rotate(213.75)" xlink:href="#b"/><use transform="rotate(225)" xlink:href="#b"/><use transform="rotate(236.25)" xlink:href="#b"/><use transform="rotate(247.5)" xlink:href="#b"/><use transform="rotate(258.75)" xlink:href="#b"/><use transform="rotate(-90)" xlink:href="#b"/><use transform="rotate(-78.75)" xlink:href="#b"/><use transform="rotate(-67.5)" xlink:href="#b"/><use transform="rotate(-56.25)" xlink:href="#b"/><use transform="rotate(-45)" xlink:href="#b"/><use transform="rotate(-33.75)" xlink:href="#b"/><use transform="rotate(-22.5)" xlink:href="#b"/><use transform="rotate(-11.25)" xlink:href="#b"/><path id="c" stroke="#000" stroke-linejoin="round" stroke-width="6" d="M7-42H-7l7 7z"/><use transform="rotate(72)" xlink:href="#c"/><use transform="rotate(144)" xlink:href="#c"/><use transform="rotate(216)" xlink:href="#c"/><use transform="rotate(-72)" xlink:href="#c"/></g><mask id="a"><path fill="#fff" d="M-60-60H60V60H-60z"/><circle id="d" cy="-40" r="3"/><use transform="rotate(72)" xlink:href="#d"/><use transform="rotate(144)" xlink:href="#d"/><use transform="rotate(216)" xlink:href="#d"/><use transform="rotate(-72)" xlink:href="#d"/></mask></g><path d="M73.249 30.037c-.69 0-1.34-.135-1.63-.337-.264-.186-.627-.619-.804-.962-.247-.479-.323-1.44-.323-4.095v-3.47h3.026l.003 2.54c.002 1.608.104 2.74.276 3.081.15.297.47.57.712.604.242.035.702-.142 1.022-.394.575-.453.581-.485.581-3.144v-2.686h3.243v2.907c0 2.406.058 2.94.336 3.096.258.145.321.486.27 1.47l-.066 1.282-1.045.066c-.686.044-1.225-.05-1.567-.275-.287-.188-.522-.485-.522-.66 0-.176-.086-.32-.19-.32-.104 0-.323.16-.486.358-.163.196-.61.488-.993.648-.382.16-1.212.29-1.843.29zm11.55-.019c-.676-.01-1.489-.097-1.807-.193-.318-.096-.97-.394-1.448-.663-.837-.47-.858-.509-.573-1.05.163-.309.431-.741.596-.962.291-.388.326-.386 1.148.054.466.25 1.172.515 1.57.59.43.08.822.036.967-.11.183-.182.165-.32-.07-.541-.173-.164-.969-.51-1.768-.771-.983-.32-1.63-.684-2-1.123-.34-.406-.546-.916-.546-1.358 0-.39.22-1.038.49-1.442.27-.404.83-.905 1.244-1.113.47-.236 1.237-.376 2.049-.373.798.002 1.64.16 2.19.41.49.222.959.513 1.041.647.083.133-.068.606-.335 1.05-.267.443-.512.841-.544.885-.033.043-.485-.127-1.004-.379s-1.15-.457-1.404-.457c-.252 0-.525.107-.605.237-.081.13-.014.356.149.502.163.145.83.426 1.485.625.654.198 1.499.551 1.878.784.446.275.764.695.901 1.192.133.479.138 1.038.014 1.486-.11.396-.417.924-.685 1.175s-.76.56-1.095.687c-.335.126-1.162.222-1.838.212zm8.391-.051c-.93.052-1.58-.022-1.922-.22a2.533 2.533 0 0 1-.803-.815c-.188-.34-.289-1.347-.294-2.948l-.008-2.432h-.54c-.511 0-.54-.065-.54-1.19 0-1.123.029-1.188.54-1.188.521 0 .54-.05.54-1.406v-1.405h3.243v2.81h1.752l-.13 2.27-1.622.135v1.716c0 1.21.08 1.727.27 1.753.149.02.56.044.912.054.595.016.66.101.899 1.166.255 1.14.252 1.15-.318 1.384-.315.13-1.206.273-1.979.316zm-32.106-.146h-1.625l.115-11.782 2.81-.066c1.595-.038 3.157.035 3.612.167.44.13 1.101.487 1.469.796.367.31.858.935 1.09 1.391.237.465.423 1.263.423 1.818 0 .543-.133 1.301-.296 1.684a4.16 4.16 0 0 1-.842 1.197l-.545.502 1.164 1.984c.64 1.092 1.164 2.057 1.165 2.146.002.09-.8.162-1.78.162H66.06l-.973-1.729c-.904-1.606-1.023-1.728-1.676-1.729h-.702v3.459zm2.903-6.486c1.065 0 1.341-.075 1.524-.418.124-.23.224-.619.224-.864 0-.246-.2-.647-.443-.89-.347-.347-.666-.43-1.46-.38l-1.015.066-.13 2.486z"/></svg>