<svg
  xml:space="preserve"
  xmlns="http://www.w3.org/2000/svg"
  viewBox="0 0 164.42 48"
>
  <path d="m34.11 0-6.4 11.08L21.31 0H.01l27.7 48L55.43 0z" fill="#42b883"/>
  <path d="m34.11 0-6.4 11.08L21.31 0H11.08l16.63 28.8L44.34 0z" fill="#35495e"/>
  <path d="M118.51 23.79v1.28h-14.85v-2.6h13.2l-1.45.96a10.23 10.23 0 0 0-.14-1.77 7.8 7.8 0 0 0-.45-1.58 5.49 5.49 0 0 0-.81-1.4 4.74 4.74 0 0 0-.94-.89q-1.16-.83-2.89-.83-1.73 0-2.96.85-1.23.84-1.88 2.2a6.68 6.68 0 0 0-.65 2.92v1.73a10.2 10.2 0 0 0 .12 1.62q.14.9.46 1.64a5.94 5.94 0 0 0 .15.34 5.47 5.47 0 0 0 1.05 1.47 4.92 4.92 0 0 0 1.02.77q1.32.76 3.07.76a6.79 6.79 0 0 0 1.2-.1 5.48 5.48 0 0 0 .85-.22q.92-.33 1.59-.99a4.23 4.23 0 0 0 .85-1.22 5.12 5.12 0 0 0 .18-.41l2.97.82q-.44 1.44-1.5 2.53a7.1 7.1 0 0 1-2.01 1.44 8.53 8.53 0 0 1-.62.27 8.77 8.77 0 0 1-2.11.53 11.25 11.25 0 0 1-1.42.09q-2.77 0-4.78-1.23a8.16 8.16 0 0 1-3.1-3.44 10.37 10.37 0 0 1-.92-2.96 13.85 13.85 0 0 1-.16-2.2q0-2.93 1.06-5.17a8.67 8.67 0 0 1 1.76-2.51 8.04 8.04 0 0 1 1.24-1 7.8 7.8 0 0 1 3.43-1.2 9.87 9.87 0 0 1 1.11-.07q1.52 0 3 .5a7.45 7.45 0 0 1 2.68 1.63 8.94 8.94 0 0 1 0 0 7.1 7.1 0 0 1 1.3 1.63 9.44 9.44 0 0 1 .63 1.32q.6 1.55.7 3.67a18.18 18.18 0 0 1 .02.82zM81.78 26.6V14.46h3.08v11.9a6.74 6.74 0 0 0 .14 1.4q.26 1.23 1.03 2.05 1.16 1.25 3.16 1.25a5.37 5.37 0 0 0 1.49-.2 4.66 4.66 0 0 0 .97-.4 4.3 4.3 0 0 0 1.67-1.67 5.16 5.16 0 0 0 .05-.09 4.97 4.97 0 0 0 .5-1.44q.13-.62.13-1.31a8.32 8.32 0 0 0 0-.03V14.46h3.1V33.6h-2.98v-4.64h.4a10.68 10.68 0 0 1-.64 1.56q-.4.78-.9 1.36a4.9 4.9 0 0 1-.97.86 6.5 6.5 0 0 1-3.46 1.1 7.91 7.91 0 0 1-.28 0 7.95 7.95 0 0 1-1.8-.2 6.3 6.3 0 0 1-1.6-.6q-1.46-.8-2.27-2.4a7.03 7.03 0 0 1-.59-1.69q-.22-1.05-.22-2.33zm58.86 2.34 2.93-.7q.4 1.57 1.55 2.31a4.41 4.41 0 0 0 1.45.6q.58.12 1.26.13a7.8 7.8 0 0 0 .13 0 7.61 7.61 0 0 0 1.28-.1q.71-.12 1.28-.38a3.88 3.88 0 0 0 .64-.37q1.18-.86 1.18-2.04a2.33 2.33 0 0 0-.17-.9 2.18 2.18 0 0 0-.52-.75 3.04 3.04 0 0 0-.65-.46q-.33-.18-.75-.32a7.3 7.3 0 0 0-.71-.2l-3.18-.75a11.97 11.97 0 0 1-1.57-.48q-.77-.3-1.37-.68a5.27 5.27 0 0 1-.93-.75 4.38 4.38 0 0 1-1.23-2.7 5.93 5.93 0 0 1-.03-.61 4.93 4.93 0 0 1 .37-1.95 4.72 4.72 0 0 1 .55-.95 5.88 5.88 0 0 1 1.81-1.6 7.33 7.33 0 0 1 .71-.37q1.6-.7 3.64-.7a10.93 10.93 0 0 1 1.5.1q1.02.13 1.84.48a6.33 6.33 0 0 1 1.42.84 5.43 5.43 0 0 1 .82.79q.87 1.03 1.3 2.39l-2.8.71a4.67 4.67 0 0 0-.85-1.4 5.8 5.8 0 0 0-.45-.46q-.92-.84-2.77-.84a6.13 6.13 0 0 0-1.28.13 4.3 4.3 0 0 0-1.56.66 3.08 3.08 0 0 0-.63.56 2.17 2.17 0 0 0-.51 1.42 2.36 2.36 0 0 0 .14.82 2.06 2.06 0 0 0 .63.88 3.45 3.45 0 0 0 .62.4q.65.35 1.64.6a12.7 12.7 0 0 0 .18.04l2.9.68a12 12 0 0 1 1.49.45q.77.3 1.37.68a5.2 5.2 0 0 1 .98.78 4.4 4.4 0 0 1 1.24 2.83 5.86 5.86 0 0 1 .01.43q0 1.68-.95 2.98a5.96 5.96 0 0 1-1.7 1.57 7.67 7.67 0 0 1-.95.5 8.62 8.62 0 0 1-2.18.62A11.55 11.55 0 0 1 148 34a11.52 11.52 0 0 1-1.83-.14 8.68 8.68 0 0 1-1.67-.44 6.5 6.5 0 0 1-1.7-.93 5.81 5.81 0 0 1-.82-.77q-1-1.13-1.34-2.77zM70.86 33.6h-3.24l-7.3-19.13h3.37l4.07 11.35a36.68 36.68 0 0 1 1.1 3.51 87.49 87.49 0 0 0 .94 3.34 80.27 80.27 0 0 0 .01.06h-1.13a87.27 87.27 0 0 0 .94-3.34 94.95 94.95 0 0 0 .01-.06q.46-1.75 1.09-3.51l4.07-11.35h3.37zM133 34.96v-20.5h3.1v20.5a10.08 10.08 0 0 1 0 .1q0 1.7-.6 2.96a5.19 5.19 0 0 1-.02.05q-.63 1.3-1.88 1.98a5.25 5.25 0 0 1-1.4.52q-.63.13-1.36.16a9.68 9.68 0 0 1-.36 0h-.61V37.9h.56q.9 0 1.47-.34a1.82 1.82 0 0 0 .48-.42 2.5 2.5 0 0 0 .43-.83q.12-.36.16-.8a5.67 5.67 0 0 0 .03-.55zm-9.35-1.8a2.68 2.68 0 0 1-.02-.03 2.22 2.22 0 0 1-.67-1.6 2.7 2.7 0 0 1 0-.03 2.22 2.22 0 0 1 .65-1.61 2.68 2.68 0 0 1 .02-.02 2.22 2.22 0 0 1 1.6-.68 2.7 2.7 0 0 1 .04 0 2.22 2.22 0 0 1 1.6.66 2.68 2.68 0 0 1 .03.02 2.22 2.22 0 0 1 .68 1.6 2.7 2.7 0 0 1 0 .03 2.22 2.22 0 0 1-.66 1.61 2.68 2.68 0 0 1-.02.02 2.22 2.22 0 0 1-1.6.68 2.7 2.7 0 0 1-.03 0 2.22 2.22 0 0 1-1.62-.66zm9.4-22.43q-.63-.6-.63-1.43 0-.86.63-1.45a2.13 2.13 0 0 1 1.5-.59 2.15 2.15 0 0 1 1.53.6q.63.58.63 1.44a1.9 1.9 0 0 1-.58 1.39 2.44 2.44 0 0 1-.05.04 2.14 2.14 0 0 1-1.53.6 2.12 2.12 0 0 1-1.5-.6z" fill="currentColor" stroke-linecap="round" stroke-width="0" vector-effect="non-scaling-stroke"/>
</svg>
